<mxfile host="Electron" modified="2024-05-13T18:32:30.790Z" agent="Mozilla/5.0 (X11; Linux x86_64) AppleWebKit/537.36 (KHTML, like Gecko) draw.io/24.2.5 Chrome/120.0.6099.109 Electron/28.1.0 Safari/537.36" etag="eBEuXtMA8YkHh4jA27Ad" version="24.2.5" type="device">
  <diagram name="PÃ¡gina-1" id="nt1JIN_z7GlLpo2apAQZ">
    <mxGraphModel dx="1195" dy="1867" grid="1" gridSize="10" guides="1" tooltips="1" connect="1" arrows="1" fold="1" page="1" pageScale="1" pageWidth="827" pageHeight="1169" math="0" shadow="0">
      <root>
        <mxCell id="0" />
        <mxCell id="1" parent="0" />
        <mxCell id="9a3LxTXBDebZ_LJj2hiY-1" value="" style="rounded=0;whiteSpace=wrap;html=1;" vertex="1" parent="1">
          <mxGeometry x="30" y="150" width="320" height="220" as="geometry" />
        </mxCell>
        <mxCell id="9a3LxTXBDebZ_LJj2hiY-3" value="" style="endArrow=classic;startArrow=classic;html=1;rounded=0;" edge="1" parent="1">
          <mxGeometry width="50" height="50" relative="1" as="geometry">
            <mxPoint x="30" y="380" as="sourcePoint" />
            <mxPoint x="350" y="380" as="targetPoint" />
          </mxGeometry>
        </mxCell>
        <mxCell id="9a3LxTXBDebZ_LJj2hiY-5" value="" style="endArrow=classic;startArrow=classic;html=1;rounded=0;" edge="1" parent="1">
          <mxGeometry width="50" height="50" relative="1" as="geometry">
            <mxPoint x="360" y="370" as="sourcePoint" />
            <mxPoint x="359.71" y="150" as="targetPoint" />
          </mxGeometry>
        </mxCell>
        <mxCell id="9a3LxTXBDebZ_LJj2hiY-6" value="Block of threads Contains 1024 threads with indexes&amp;nbsp; 0 - 1023" style="text;html=1;align=center;verticalAlign=middle;whiteSpace=wrap;rounded=0;" vertex="1" parent="1">
          <mxGeometry x="70" y="195" width="200" height="130" as="geometry" />
        </mxCell>
        <mxCell id="9a3LxTXBDebZ_LJj2hiY-8" value="" style="whiteSpace=wrap;html=1;aspect=fixed;" vertex="1" parent="1">
          <mxGeometry x="110" y="-50" width="80" height="80" as="geometry" />
        </mxCell>
        <mxCell id="9a3LxTXBDebZ_LJj2hiY-9" value="" style="endArrow=none;html=1;rounded=0;exitX=0.5;exitY=1;exitDx=0;exitDy=0;entryX=0.5;entryY=0;entryDx=0;entryDy=0;" edge="1" parent="1" source="9a3LxTXBDebZ_LJj2hiY-8" target="9a3LxTXBDebZ_LJj2hiY-8">
          <mxGeometry width="50" height="50" relative="1" as="geometry">
            <mxPoint x="260" y="70" as="sourcePoint" />
            <mxPoint x="310" y="20" as="targetPoint" />
          </mxGeometry>
        </mxCell>
        <mxCell id="9a3LxTXBDebZ_LJj2hiY-10" value="" style="endArrow=none;html=1;rounded=0;exitX=0;exitY=0.5;exitDx=0;exitDy=0;entryX=1;entryY=0.5;entryDx=0;entryDy=0;" edge="1" parent="1" source="9a3LxTXBDebZ_LJj2hiY-8" target="9a3LxTXBDebZ_LJj2hiY-8">
          <mxGeometry width="50" height="50" relative="1" as="geometry">
            <mxPoint x="260" y="70" as="sourcePoint" />
            <mxPoint x="310" y="20" as="targetPoint" />
          </mxGeometry>
        </mxCell>
        <mxCell id="9a3LxTXBDebZ_LJj2hiY-11" value="Matriz A 2x2" style="text;html=1;align=center;verticalAlign=middle;whiteSpace=wrap;rounded=0;" vertex="1" parent="1">
          <mxGeometry x="120" y="-90" width="60" height="30" as="geometry" />
        </mxCell>
        <mxCell id="9a3LxTXBDebZ_LJj2hiY-12" value="2" style="text;html=1;align=center;verticalAlign=middle;whiteSpace=wrap;rounded=0;" vertex="1" parent="1">
          <mxGeometry x="120" y="-30" width="20" height="10" as="geometry" />
        </mxCell>
        <mxCell id="9a3LxTXBDebZ_LJj2hiY-14" value="2" style="text;html=1;align=center;verticalAlign=middle;whiteSpace=wrap;rounded=0;" vertex="1" parent="1">
          <mxGeometry x="160" y="-30" width="20" height="10" as="geometry" />
        </mxCell>
        <mxCell id="9a3LxTXBDebZ_LJj2hiY-15" value="2" style="text;html=1;align=center;verticalAlign=middle;whiteSpace=wrap;rounded=0;" vertex="1" parent="1">
          <mxGeometry x="120" y="10" width="20" height="10" as="geometry" />
        </mxCell>
        <mxCell id="9a3LxTXBDebZ_LJj2hiY-16" value="2" style="text;html=1;align=center;verticalAlign=middle;whiteSpace=wrap;rounded=0;" vertex="1" parent="1">
          <mxGeometry x="160" y="10" width="20" height="10" as="geometry" />
        </mxCell>
        <mxCell id="9a3LxTXBDebZ_LJj2hiY-17" value="" style="whiteSpace=wrap;html=1;aspect=fixed;" vertex="1" parent="1">
          <mxGeometry x="240" y="-50" width="80" height="80" as="geometry" />
        </mxCell>
        <mxCell id="9a3LxTXBDebZ_LJj2hiY-18" value="" style="endArrow=none;html=1;rounded=0;exitX=0.5;exitY=1;exitDx=0;exitDy=0;entryX=0.5;entryY=0;entryDx=0;entryDy=0;" edge="1" parent="1" source="9a3LxTXBDebZ_LJj2hiY-17" target="9a3LxTXBDebZ_LJj2hiY-17">
          <mxGeometry width="50" height="50" relative="1" as="geometry">
            <mxPoint x="390" y="70" as="sourcePoint" />
            <mxPoint x="440" y="20" as="targetPoint" />
          </mxGeometry>
        </mxCell>
        <mxCell id="9a3LxTXBDebZ_LJj2hiY-19" value="" style="endArrow=none;html=1;rounded=0;exitX=0;exitY=0.5;exitDx=0;exitDy=0;entryX=1;entryY=0.5;entryDx=0;entryDy=0;" edge="1" parent="1" source="9a3LxTXBDebZ_LJj2hiY-17" target="9a3LxTXBDebZ_LJj2hiY-17">
          <mxGeometry width="50" height="50" relative="1" as="geometry">
            <mxPoint x="390" y="70" as="sourcePoint" />
            <mxPoint x="440" y="20" as="targetPoint" />
          </mxGeometry>
        </mxCell>
        <mxCell id="9a3LxTXBDebZ_LJj2hiY-20" value="Matriz B 2x2" style="text;html=1;align=center;verticalAlign=middle;whiteSpace=wrap;rounded=0;" vertex="1" parent="1">
          <mxGeometry x="250" y="-90" width="60" height="30" as="geometry" />
        </mxCell>
        <mxCell id="9a3LxTXBDebZ_LJj2hiY-21" value="2" style="text;html=1;align=center;verticalAlign=middle;whiteSpace=wrap;rounded=0;" vertex="1" parent="1">
          <mxGeometry x="250" y="-30" width="20" height="10" as="geometry" />
        </mxCell>
        <mxCell id="9a3LxTXBDebZ_LJj2hiY-22" value="2" style="text;html=1;align=center;verticalAlign=middle;whiteSpace=wrap;rounded=0;" vertex="1" parent="1">
          <mxGeometry x="290" y="-30" width="20" height="10" as="geometry" />
        </mxCell>
        <mxCell id="9a3LxTXBDebZ_LJj2hiY-23" value="2" style="text;html=1;align=center;verticalAlign=middle;whiteSpace=wrap;rounded=0;" vertex="1" parent="1">
          <mxGeometry x="250" y="10" width="20" height="10" as="geometry" />
        </mxCell>
        <mxCell id="9a3LxTXBDebZ_LJj2hiY-24" value="2" style="text;html=1;align=center;verticalAlign=middle;whiteSpace=wrap;rounded=0;" vertex="1" parent="1">
          <mxGeometry x="290" y="10" width="20" height="10" as="geometry" />
        </mxCell>
        <mxCell id="9a3LxTXBDebZ_LJj2hiY-25" value="X" style="text;html=1;align=center;verticalAlign=middle;whiteSpace=wrap;rounded=0;" vertex="1" parent="1">
          <mxGeometry x="190" y="-30" width="60" height="30" as="geometry" />
        </mxCell>
        <mxCell id="9a3LxTXBDebZ_LJj2hiY-26" value="=&amp;nbsp;" style="text;html=1;align=center;verticalAlign=middle;whiteSpace=wrap;rounded=0;" vertex="1" parent="1">
          <mxGeometry x="330" y="-30" width="60" height="30" as="geometry" />
        </mxCell>
        <mxCell id="9a3LxTXBDebZ_LJj2hiY-27" value="" style="whiteSpace=wrap;html=1;aspect=fixed;" vertex="1" parent="1">
          <mxGeometry x="390" y="-50" width="80" height="80" as="geometry" />
        </mxCell>
        <mxCell id="9a3LxTXBDebZ_LJj2hiY-28" value="" style="endArrow=none;html=1;rounded=0;exitX=0.5;exitY=1;exitDx=0;exitDy=0;entryX=0.5;entryY=0;entryDx=0;entryDy=0;" edge="1" parent="1" source="9a3LxTXBDebZ_LJj2hiY-27" target="9a3LxTXBDebZ_LJj2hiY-27">
          <mxGeometry width="50" height="50" relative="1" as="geometry">
            <mxPoint x="540" y="70" as="sourcePoint" />
            <mxPoint x="590" y="20" as="targetPoint" />
          </mxGeometry>
        </mxCell>
        <mxCell id="9a3LxTXBDebZ_LJj2hiY-29" value="" style="endArrow=none;html=1;rounded=0;exitX=0;exitY=0.5;exitDx=0;exitDy=0;entryX=1;entryY=0.5;entryDx=0;entryDy=0;" edge="1" parent="1" source="9a3LxTXBDebZ_LJj2hiY-27" target="9a3LxTXBDebZ_LJj2hiY-27">
          <mxGeometry width="50" height="50" relative="1" as="geometry">
            <mxPoint x="540" y="70" as="sourcePoint" />
            <mxPoint x="590" y="20" as="targetPoint" />
          </mxGeometry>
        </mxCell>
        <mxCell id="9a3LxTXBDebZ_LJj2hiY-30" value="Matriz C 2x2" style="text;html=1;align=center;verticalAlign=middle;whiteSpace=wrap;rounded=0;" vertex="1" parent="1">
          <mxGeometry x="400" y="-90" width="60" height="30" as="geometry" />
        </mxCell>
        <mxCell id="9a3LxTXBDebZ_LJj2hiY-31" value="8" style="text;html=1;align=center;verticalAlign=middle;whiteSpace=wrap;rounded=0;" vertex="1" parent="1">
          <mxGeometry x="400" y="-30" width="20" height="10" as="geometry" />
        </mxCell>
        <mxCell id="9a3LxTXBDebZ_LJj2hiY-32" value="8" style="text;html=1;align=center;verticalAlign=middle;whiteSpace=wrap;rounded=0;" vertex="1" parent="1">
          <mxGeometry x="440" y="-30" width="20" height="10" as="geometry" />
        </mxCell>
        <mxCell id="9a3LxTXBDebZ_LJj2hiY-33" value="8" style="text;html=1;align=center;verticalAlign=middle;whiteSpace=wrap;rounded=0;" vertex="1" parent="1">
          <mxGeometry x="400" y="10" width="20" height="10" as="geometry" />
        </mxCell>
        <mxCell id="9a3LxTXBDebZ_LJj2hiY-34" value="8" style="text;html=1;align=center;verticalAlign=middle;whiteSpace=wrap;rounded=0;" vertex="1" parent="1">
          <mxGeometry x="440" y="10" width="20" height="10" as="geometry" />
        </mxCell>
        <mxCell id="9a3LxTXBDebZ_LJj2hiY-35" value="Block - size" style="text;html=1;align=center;verticalAlign=middle;whiteSpace=wrap;rounded=0;" vertex="1" parent="1">
          <mxGeometry x="140" y="390" width="60" height="30" as="geometry" />
        </mxCell>
        <mxCell id="9a3LxTXBDebZ_LJj2hiY-36" value="Block - size" style="text;html=1;align=center;verticalAlign=middle;whiteSpace=wrap;rounded=0;" vertex="1" parent="1">
          <mxGeometry x="360" y="245" width="60" height="30" as="geometry" />
        </mxCell>
        <mxCell id="9a3LxTXBDebZ_LJj2hiY-37" value="" style="rounded=0;whiteSpace=wrap;html=1;" vertex="1" parent="1">
          <mxGeometry x="460" y="370" width="130" height="120" as="geometry" />
        </mxCell>
        <mxCell id="9a3LxTXBDebZ_LJj2hiY-39" value="" style="endArrow=none;html=1;rounded=0;" edge="1" parent="1">
          <mxGeometry width="50" height="50" relative="1" as="geometry">
            <mxPoint x="440" y="520" as="sourcePoint" />
            <mxPoint x="440" y="120" as="targetPoint" />
          </mxGeometry>
        </mxCell>
        <mxCell id="9a3LxTXBDebZ_LJj2hiY-40" value="&lt;h1 style=&quot;margin-top: 0px;&quot;&gt;&lt;span style=&quot;background-color: initial;&quot;&gt;Resolvendo o problema :&amp;nbsp;&lt;/span&gt;&lt;br&gt;&lt;/h1&gt;&lt;div&gt;&lt;span style=&quot;background-color: initial;&quot;&gt;Para resolver o problema dessa forma, precisamos pensar o que cada kernel deve fazer.&amp;nbsp; Se cada kernel for responsÃ¡vel por multiplicar&amp;nbsp; a linha A[0] pela coluna B[i][0], precisamos entÃ£o de um bloco que contenha 4 threads. Pois sÃ£o 4 operaÃ§Ãµes dessa forma, para a multiplicaÃ§Ã£o de matrizes quadradas 2x2.&amp;nbsp;&lt;br&gt;&lt;br&gt;&lt;/span&gt;Da multiplicaÃ§Ã£o de matrizes sabemos que a matriz resultante terÃ¡ o numero de colunas de A , como numero de linhas, e terÃ¡ o numero de linhas de B como o numero de colunas, chamaremos isso de uma matrix P X Q .&amp;nbsp;&lt;span style=&quot;background-color: initial;&quot;&gt;&lt;br&gt;&lt;/span&gt;&lt;/div&gt;" style="text;html=1;whiteSpace=wrap;overflow=hidden;rounded=0;" vertex="1" parent="1">
          <mxGeometry x="457" y="120" width="370" height="230" as="geometry" />
        </mxCell>
        <mxCell id="9a3LxTXBDebZ_LJj2hiY-44" value="" style="endArrow=classic;startArrow=classic;html=1;rounded=0;" edge="1" parent="1">
          <mxGeometry width="50" height="50" relative="1" as="geometry">
            <mxPoint x="600" y="500" as="sourcePoint" />
            <mxPoint x="600" y="380" as="targetPoint" />
          </mxGeometry>
        </mxCell>
        <mxCell id="9a3LxTXBDebZ_LJj2hiY-45" value="Q" style="text;html=1;align=center;verticalAlign=middle;whiteSpace=wrap;rounded=0;" vertex="1" parent="1">
          <mxGeometry x="580" y="425" width="60" height="30" as="geometry" />
        </mxCell>
        <mxCell id="9a3LxTXBDebZ_LJj2hiY-46" value="" style="endArrow=classic;startArrow=classic;html=1;rounded=0;" edge="1" parent="1">
          <mxGeometry width="50" height="50" relative="1" as="geometry">
            <mxPoint x="460" y="511.14285714285717" as="sourcePoint" />
            <mxPoint x="590" y="511" as="targetPoint" />
          </mxGeometry>
        </mxCell>
        <mxCell id="9a3LxTXBDebZ_LJj2hiY-47" value="P" style="text;html=1;align=center;verticalAlign=middle;whiteSpace=wrap;rounded=0;" vertex="1" parent="1">
          <mxGeometry x="492" y="510" width="60" height="30" as="geometry" />
        </mxCell>
        <mxCell id="9a3LxTXBDebZ_LJj2hiY-48" value="&lt;h1 style=&quot;margin-top: 0px;&quot;&gt;&lt;span style=&quot;background-color: initial;&quot;&gt;Definindo o grid e os blocos:&lt;/span&gt;&lt;/h1&gt;&lt;h1 style=&quot;margin-top: 0px;&quot;&gt;&lt;span style=&quot;font-size: 12px; font-weight: 400;&quot;&gt;Cada bloco deve ter no maximo 1024, threads. Nesse caso, vamos utilizar 512 threads por bloco. Operando com 50% da sua capacidade. Para calcular o numero de blocos por grid Ã© preciso pensar na dimensÃ£o da matriz resultante.&amp;nbsp; Nesse caso, precisamos de blocos com no mÃ­nimo PXQ de dimensÃ£o.&amp;nbsp;&lt;/span&gt;&lt;/h1&gt;&lt;h1 style=&quot;margin-top: 0px;&quot;&gt;&lt;span style=&quot;font-size: 12px; font-weight: 400;&quot;&gt;&lt;br&gt;&lt;br&gt;&lt;/span&gt;&lt;/h1&gt;" style="text;html=1;whiteSpace=wrap;overflow=hidden;rounded=0;" vertex="1" parent="1">
          <mxGeometry y="530" width="830" height="211" as="geometry" />
        </mxCell>
        <mxCell id="9a3LxTXBDebZ_LJj2hiY-49" value="" style="shape=image;verticalLabelPosition=bottom;labelBackgroundColor=default;verticalAlign=top;aspect=fixed;imageAspect=0;image=data:image/png,iVBORw0KGgoAAAANSUhEUgAAAoIAAAAwCAIAAAAKD4wVAAAACXBIWXMAAA7EAAAOxAGVKw4bAAAgAElEQVR4nO2dd1wTydvAn9k0Sqji0YICFqygHrbfnQp2UVBpNg4FUeFELBSxgg3s3VNsV/QOy1lQVE5URA8bSrGASg1g6D0JqbvvH4shF5JYrviel+8nf8DsM3WfnWfnmZkdZNfDFj4vvvHxKSktTU1N/ZvSX71q1bPnzxMSEv6m9P9JHOzthw8fvm///k9dkH8CQwOD6TNmHDp0qP0lox72XzgOe3XywEcka+M2i19eWpl+508XsBUMw4KCgr7//ns+n69ecurUqTk5Oa9evfrQLBhGJl09/V7Hx4m5TR8a13TgcB1zq6JLP39oRFW8Z32dnZw6de78448//lX5qsHExCRg7tyDhw41Njb+A9n9rXh6enaxtd2ydeufT0qVvn20HmogwT51Af56pk2bZmNjoxBoZWWVnZVF/kY6O/+Z9AcPHmJkaPRnUvjH+MbH505qardu3VQJDBjw5dhx4/7JIv0leEzpej5+ko21vizEwpyZnOhO/r4aYtE+iqGh4fHjx7/63/9oNFr7q0a9+pt/PebjCtPZxUuHpahvuuZWExOekD+zIU7vnxpCKDYmxtPDo4Nxh3cKOzg4HD1ypGfPnqoEJkyYcP/ePTqdrhCu3dHMetJ0jKH1/gWT0XHQcJN+Q9qHjzp+jaxvr4Cw909NaX0ZDIaTk5Ourq685LDhwwcNGvQRBf4IzM3NZ8yYwWAw/pnslJJ8/TrZX0WEh/+ZdHr17NWpU6e/pEiq9O2deqhBPZ+hGSYIgiAIhUAOp3yCy6QJLpOkUqkUx/9sDqCYvhr27N798MGDrMzM5OvXY2Njzc3MPjrjvn37Hj1y5NHDh6m3U7dt22ZgYKBe3srKysDAwKSDyg4dJ3Bo11b//7Ew19XToxsbtfWSFZW8WX6Js/wScZxQen9XREZKpNI5fv5isbj9VRxvrzLvC0FA+8i8yvKkALekADcCl0qlH6BvHh4eI0aM8PnGl11SQoYkXbt2OC5OJnD+3LnJbm7k36tXrcnMzIqNiWlvaEmcnZxSU1NFIpFCOP4nbrrS5wsAUsL8kgLcanOypVLp+6fWvr4AYGVltWf3bmMj4/fJ9++AwN+dkb+//907d7IyM++kph49cqRfv34fl9cP33//OD09MyPj1s2bm2NjO3bsSIb7+PhOcJmUmZX1QfrTHuKve8JV6ds79VCDej5DM6wUqVRSVlZSVlbybtG/GksW6/z5C25uUyJXrDQ3M9u/fz+FQvmIdBzs7Y8fO8bj8ebNm79i5Qoul8vj8dRHid28ZfIU99/T0j6q4P9/2Xcww2/+1UePK2QhOE5UVAoqKgVK5R0dHceMGbMicqVEosQG/y3gEnFlqbiy9IMi6enpLVm8ZOfO3aWlJRiGWlPCicGDBw8dMuTtv7isX6bSKCtXrjQ2Nvbx8WmfGoPBGDZs2I0bN/9ENT4ASQ1HXFkqFba8fxSl9QUAHMcBPuRV91PQ0aRjcTHbzW1KYGBQMZsdd+iQlZXVR6RjYWFx7NhxV7fJq9es7dmz584dO8jw8gpOWVmJoOUD2vPvRpW+qddDDe+E+qkL8Lfg4uLiM2uWvr7+7du312/YQJorDFP+zsFgMJYtWzZp4kSCIBITE3fu2iUbPUx2c/P29raxscEwrKCgYI6fn/xYCsOwTZs29enT5xsfn4bGxg4dOkRGRg4aOFBHR6e2ru7gwYOt88cEUV1TXcwuKiouXL2m4kpiYteuXV+9esVgMBYFB48aNYrJZD7JyIiJiamqqgIAS0vLwMDAfv36dTQxoVKphUVF3t7eABAeHpGZmRkUtJBCxQgCUm7dZmjRVclbWVklXr5MlnPp0qW3UlJkxWYymWtWr3Zycmpqaqqrr1ffkhYWFr+ePbt3795Tp08DwIwZM+YFBEx1d/9r58zGju7s6mLbicXEMFRc0rw0IlUiwel0ip9vr2FDLXV1aU+f1+w7mFVT22JhzvzxyFgyVvTGB2kPOLJEVN1fAJg6Zcrt1NS8/NfyMlQdZt9vV5oOGiHmNgkb29oBo9N7+S21dHIhCOJNypXcH/bgYhEAjP4xOS8+jp30KwB08ZjTaezUlAWTySisEeO7uM2gMfUrH6U++26ThK9O3zA63c5nofnQkVQdZt2LjOdxWwS1VeSl0aNGSaWS02dOKcR9lJ4eEhJy/8GD9qk1c5uPHjvm5el5/PhxhUtDhgyh0Whpab+3/o9QN+8A60nTEYXCLS2Sl+zs4tXV05+uZ1j7LP3pgY1kefqHxwJA5rYVAGBo1/errT/c9HcR1FYCgF7nLiP2n9UxZTUVv87eE80tK1Lf/p3GuVtPnKZtasEtKcw5trP+Zbaa+h6Oixs8eDAAXElsVeBvFy5MS0sDAHt7+5Rbt5hMZlZW1pq1aysqKsh8Q0NDBzo6mpub6+rq1tfX+8+dy2azAcDTw2P69OmWlpYFBQXbt2/Pys4m5U/Fx7NYLDqdnpOTE7t5c25uLgAghObPnz9zxgwKhVJYWNh2vzAsJCTEZcIEY2NjLpd7PTk5JiYGAAggeDxuMbuIICD76dORzs7Dhw3/+Zef1eSrqpw1tTUlJezi4mIDA4PoqLWyfFW15zRv74CAAAMDg/T09HXr15P9BgD0c3BYsGCBnZ2dnp5eeXl5xPLlL1++lI/o5eUVHhY2NyDg2bNnSlOmUqknfvqp7M2b8PBwAOjRo8fJEyfmzZ+fmZlJCqjSN1Xha1avHjVq1NyAgIKCAlXV0fB5mmECx9dv2IghLDIyIjY2NiQkRI1wVFTUlwMGrFy1GsPQyhUrmEzm6jVrAMDX13fpkiXx8fE7d+2WiMUWFhbyNhghtHLFin79+s2cOau+oQEhtHTpUpYla1HI4ob6hk6drKqrq9qEAZEPFS7nL42KiurTu/emTTF19fXhYaFbNm/28/cHgM6dOru5uq5ZszY/P1+K4wYGhgDQsWPHvn37BAV9S2e0Tm1Sqa1DaqXypBMeABIvJyg4aWNjY21tbCIiInECD174rfqWfFP2Jnrduo0bNqQ/fiwQCBaHhISGhTc0NCCE1Ed8fzyndpvn3+diQt7hY5kSMW5mxpRIcABYFjLArpvhngOPGxoFQfP7r4wYuGz5HdL5DAAnjk18/8kFJyen6HXrFfq1/qEbdVm2j7auJAi8l0+QLNw+eK1x7wHpO9YiDPULXE7VZWbvjgIAgiBk7lapFMfl/JYEQWQciEEIc1gQ1m/Zpscbl6gpjH3wWoOuvTK/2yxsqrefu6x/aMz9lQHkpRFOTtevJ7dv2zOnz4SFhY4cOfLWrVsKlxBCSUm/hS5b1rVr1/z8fPlLI51H3r9/n9/SQiZoO8Wni6ff06M7uWXFNhM8jHrYk2JWY6b08l/29Oiu5tLCnjMXDNl0+E6wFy4R43K+0LfD09YqUxlaz3+J41Vy7DznDIk5nDLPVSpU7ocg0+/pt/Tp0Z31r5/bTPAYuHZvynxXcmmY0vpGrlhpZ2d36OB3/nMDyssrAKC2tpq8VFNTszl2CwARERGxYcOGefPmAQCNRvOZNevEyZ+Tk6/zeS3mFuZlZWUA4O7uHhoaunXb9ufPnnt5eR44cMBl4sTGxkYcx/fu3V9ZVUmj0kJCgnds3z7J1RXHcV9fX38/v+3bdxQVF3l5eTk4OJCZurm5eXp4rFixis1mGxsb6+jqyJeWVCoKBROJROQAXlW+qsoJb/sHCwuzyW6u7/ReuLu7h4WFbdu+o6iwMCgo8NjRo+4eHmKx2MHe/ujRow8fPlq7Nrqurs7W1qak5A/Ov4kuLmGhYUFBC7OysikU5TZeIpEsWxZ28eL5KVOmJCYmrouO/uWX+MePn8jkVembqvDBgwcbGRn16tVLY4bV8Hma4StXr6WkpABAU1PTDz8cZ7FYMo1XwMzMzGXChPnzF9y7fx+A4PMFcYe+23/gQF1dXeCCBceOf79jxw7S4D158oRKa20uCkaJjo4e0L//zBkz6+rqEIYAoINxh4qKihcvnovF4sKiQgxD8v0+hmGmpqZLFi+prKwsLCy0sLBwmTBh8pSpBQUFCMGatWuvJCZaWFhwOByys0u8cqXV6hMEhUqxtLAAgGI2u30VlMqTTvj2wiwWa/iwYbNnz3n85AkAWFtbe3t5qmlJhKGrV6+OdHbeHBvb0NB48+at1NRU2RtAe4YMHhwnN5FJIhvNtIdGw76Z2TP+TG7c0adkss9e1FFpVFNTnZEjrPwWXGWX8BCCrTsfnTg20dRUp7KSr8rzrApDQ0Mmk8lmF8sH6phZfuE4LDXcvyEnAwBKLTvbTPAEAG0TU8vh439fHVSb9QCAeCwQfL1+/+uT37XUVKrJovT2teqHtwHgMbdp+JajOmaW/Io3SiW1v7CwHD4+OciDX1qIEDzZHT32SIL2FxYtVRwAYLFYjx4+ah9LikuPHDkaMHduezMMABUVFfyWFktLS/nuD8MwJ6cRO3fukhk564nTX505zk48hWFIwueyhrU6Fbp4zMk7f6L48s8Ywu7n57icvGH+1eg3qdfU1Lfu9fOS385jCN3PzZ506rbF12NLb15SJdzVa+7z7/eUXDuLYVj2vo0WQ0eaDhpRduuyqvrW1tRUGOgDQEVFeVlZKQAghJGV4Lzh3L9/DwB279lzYP8+HR0d2eLqO3dSMzIyAFDuy1xSkQLmzt21a/eZM2cwDFu3fv2oUSNHjBhx6dIlALidehshBEBs27b9/PlzJiYmVVVVM2fMOHbs+C/x8RiGuM3c8W+XLpKD4Oyn2Q0N9UXFhQQBCvpvaGDg7uHxxRdfPHj4UH2+SssJAJGRy5cvj6BSqVVVVatWr1HT8gDg7+f3448//fzzSQxhL3JybqfcGjtmzJWrVwMDA1/k5MybvwDDEEKQ/TSbSqXI7r67u3tYaGhgYODjJ4/VT4q94ZTFxm6JjFzez8FBV1d31+7dCjZbqb6pCl+1arWjo+O1q1fVV+o/zudphjEMkSqe+zIHADp3tlZlhrt06YIQevbsGSn/NDsLIWRra6unp6erq5ty6xaD8XbRgZzq+vv70en0ceMn1NW32mAA2LFzZ1zcoWtXryYkJJw+c6ampkYmHxKyKCRkEQDk5eV9u3CRWCzuYWeHEPr17Bn5wpibmXM4rV5WGo2K4/JLXRAAyB4qOp2efD05PCL80aNHKuSVO7Wsra0BQNYFyE/IqYJKpa6Nir7+W5K1tfUIJ2c1NhgAMrOyXF0nKwRWVau0YSxLpo429d59jkI7d7UxQAiOHBgvL/yFiU5lJV+Ns04pRkZGAKDgRde1tAEAXtHLt+3QmiazUxdAqOl1qz40vcoGhHStbNWbYQzDSHluYS4A6FhYqzLD+jbdAaFR+07JB2qbmJFm2NjIqKGxQWnE8xcuBAUFffnll8pyR3W1dQqr9x0dHfX19W+/3bZH0dLW7mjWmJ9Do1FBzpVCYWjpmrHqc7PJBeSEgNdcUqTb6R2bGBEgMh1CKmoqKdSx6KxKksbU1zG1sJ8fbj8vtLW0VBrDxJT8W2l9EYZIPUcIU7zXCChUCgCUl5cDgLFxB5kZplAo8tZFX1/f0tJy+fKI8PDWZds0Gs3M1AwA6HR66LLg0aNHM5nMhoYGANDR0dHW1jYzM3v+4vnb9mnrGE+fPuPs5PRb0rWkpKRTp0/Lb8sZOnRodlYWANTV1a1YuSovL8/Q0FBVvkrLSXLoUFzCpUsmJh1nz/7mVPwvnl5eqiZ9tLS0WCxWVlYmeb94PG5hYWGXLl0AoHfv3seOH6fT3w4V5DLp5+Aw7OuvFy9Z8k4bDAAYhp399ey4cWOnTp26IDCIIBR9Tkr1TVV4RmZG+uPHdLqS7QkaZHyeZlgG+TjRqCqrSeA4yFkjjNLqOia9cKpcr2lpaQMGfLlt69bgRcECQevg7PWrV87Oo6ZMdvPy9po9e3ZkZKRsRvbEyZ/j4+OrqqobGxsYDAaFgrUIBAAwbdp0WT9CANTX16kqJ6e8HACsra3fvCkjC2ZoaPARS71wqRQAaDS6UCh8/1j9+/fT1dWVSqUuE8b/eu6cGkmhUFTabhSuZoEr6dpFSNGyCoQSAFgQ/FtLS+tEAAHQ1Nz2nvH+qz/ramsBwNDQsLKyzZSS7UCh0SXiP7QDuYQYo2BkTqQZIJWEkIgx+jt2sFCoVADAKCr1TSIUAsCtxbPELW17ZPHm1vteV1dnaGioNCKOS0+cODlzxgylV42MDGtqa+VDnJ2ds7KyGhrqSR0mcAIIgqLiQUBYm8sRMESuE8YlEqqOjlL5togIYRQqUrYHjEQqEgJBZB6Iqcp6KAskWrjkHyrr+667Sy61U6P/QqGQIIj1GzY+fDuhTgCQa0TCwsJGOjuvW7ehqLiwV69e27ZuJQgCxwmCIJRuZuNym729pw8fPtzL2/NUfPwPP/ywZ+9e8lJWdvbq1Wvq6xuqq6tpVAqVRlWTrxrqG+rLyzkczpulSzMfPrg/evToc2qfMoS1VhwhhBAiHyI1TVZczJZIxCtXrCgqKmIr86gpYG5uZmfXvampafJktwcP7rcXaK9vqsKVvnZoUOAzXyk9eNAgHMdzcnNlIQKBQFenbT/i67w8giBkg4yBAwcSBJGfn89ms3k83ujRo5Um+yInx3vadDMz0927dslenDEKhhCcO3/e08Pr9OkzYWFtu/3q6mpLS0tEIoGOjjbp4SkoKMBxvLtdd045h/yVl3OEQsWNJTIqKyvy8/OnT5v2oZOyXC6XydST/ZuXn08QxNChSvZ9kkydOtXd3V0+xNDQcNPGjTt37tq8eWtoaCiLxVKT3ZDBg7IyMxV+X331lSr5sjfNfL542FeWCuHFJU04TnTt0qGqRkT+qmtEIlFbV8Pni3V1lXSaAoFER/sPxqahsZHL5ZIjBhnN7HwgCJN+gxWiNxfnAUF06D2A/NekryMQRHNJAQAI6muZFu/Yf9nBfiBB4A0FbfomFQio2m361lySTxC4sW03SQ1H9iPeLgksKSnt+sdyynPm7JmhQ4d2aLf9zNTUVFdXl3w/I0EIjXR2Tr5xQ6YtuEjALS/t2H+oQlypUMDllHbo01pfhqGxvpVNU3EeAAgbapiWKoe5JFrGHfWsrOtfv5BPUL6+uEjI5ZR2sOstX1+c36y+vjw+HwD09PTaX/ojKk2PUCgsKSnp27eP/PPV3NwEAH379Ll67VrK7ZSSkpLnz5+/lReUlpYOHarYPgCAEGJo0dPupQUHL1oUstjf39/ConVjegufz2YXNzc3amszyBkrNfmqgZwbplAo2tpaVCq1RW51dEuLQH7/tEAgKCkpcXzbX3Xo0MHW1vZ13msAeP78+aiRI5X6ihoaGmbP8cvNfXk4Ls7U1FT+kqOj44IFC+R3SCOENmzY8PTZM59vfMeOGTN2jOJ++vb6pibcyspq3LhxH+rB+q/xeY6Gu3frPnDgQFsbm6CgoF/PnausrJD1RwUFhZ6eHo1NjVYs1oWLF6urqy8mJKxZs2bvvn0IYPHixefPX6iurkYI7di5c/WqVXr6emlpaUKh0Nra+ty5c+TYFyFUW1vjO3vO2TNnlkdEbIqJAYDg4OASNrukpIRGp9vZdZcfe8mWaMmorKw8c/bXtWvWdLKyysnN1dXVRQglJSWpqhFCaMvWbXGHDm7ftu3s2bNa2trv2RQvX7709vZqbGywsrK6cOFCVVXVxYsJa1avNjYyKmazu3frLi9sZmYWHRUFAA8ePJC5x8NCQwsLi06cPAGAJk2aGBYWtmSJyiVIH+qUlkoh7ljW4mBHJpOe/qRSJJKyLPWu/lZUUyO4fLVgyaIBFhbMvPx6HW0aQpByp+0Jzyuod3WxbW4WWZgzr10vFgpbB8rskqaJE2yauWJzc93frrOFIilC6ObNm+PHj78qN0ElrKsqTr7U99uVDEMj3hu2vnW3t+HVxTcu9124+tVP+wFBD99FRdcvCuuqEULl91O6e/tzS/Ll5Un0rbt16OvItLLpPiOwKOmCsLZSpm9NpYWdx7tLuI06ZqyyGwnC2qqiq+fsF67SNbdqLMilaesCQpy7v5HCt1JuRYSHx27erHRzM4/HvXw5cfr0aQrh48ePZ7PZBQUFMh3r3bu3mZmZwkRy7i9xjss24AJ+7bN0Zue2+/7y1OEBi6Mk3EbeG7at+2xeJac8LRkDqHhwu5vHnB6+i6oz7+t36SWflJZxRxOHQXQ9wy6efrzyMs7dJMrb+jaXFnUe7VbzxImqrdNU9KqZXfDixP7By7dgCFU9SQMAHVNL2Re4VNW3urq6trY2MHDB6dOnjYyM8vLyXr9+3b5B1LN3377t27YhhH6/excAWCzWiZMnASA39+XYMWMyMzIqq6o6d7aWyX938NCmjRta+PxH6endu7e1j5urq4GBQe7LlyKR6Kv//U8kEjXUtznS2xsYVfmqwcTEpHPnziYmJrN9fcVi8QO5JfGFRYVTp0y5e9dJR1f31atX+fn5h+Li1q9b19jUWFxc7Ddnzps3nOvXrwPA9u07zv169tDBgxcvXqyvr//C1PTFixet07QIEIKQkMXHjh3Zs3v37DlzZM6wddHRLBarnMO59HZjhZubW88ePSZOdG3mNsXFHQ4PD7/7++/ybwbt9U1N+PZt23v0sFtJoVzRTA+r5jM0w48epQ8b9vW4cWObm7lnfz23b98++RnQ2NjNGzeu37N7d2FR0Y2bN4VCYXRUdHh4eOTy5QTAhfMXtm/fQU73njp1uq6ufq6//4Tx4xFChYWFycnJMhc0hqGampqwsPDvvz927969lNu3GXR6cHCwsbExj8fLzs5eGxWtppDkK2c5hzNjxvQFJia1tbUXLl5UX6/79+4tCAxasjhk3759PB7v8eMnMkuphtjNW7Zu2bx7167CoiKy/FFR0dU11YGBQXp6zLq6utQ7bV9hrK2tzcnNRYBqqlsntvv16zdu3LiJkyaRg/4NGzcmXLwwePDghw8fKs1OIBAWs4sUAknXmaoSJiQW1TcIZ3r3ch5hhQDYpU13094IhdJd+55UVvGmuHYznt6jvkGYlPyHZPcfzFgVOXTd6qHs0qY7aW9kZnjfwYyI0MHr1wxllzb9nsYRiqQA8Ou58z/9+MOAAQMyMjJkRcrau15QX9Nt+gKaLlPYUF+RfocMz967ThIQ2nt+BEEQxckJL47upFEQAOSf/5FhbNJzzhIKQ0vYWFf+6C6ZVPXTdDPHry2HjRHzuIXXzr08cYCUJ3l6aOuApescV+3klhZV3L8pFQmzD2zkV5V3meTNMJonbKgtvdH2VdQbN25GLl8+Z/bsI0ePtm8ohNAv8fEKZpjJZM6aOfPEyZPyfZ+zs/OrV685nHJ5zefcSkzHid6+39pM9pHwudXZ6VJBCwCU3byMqPRePoEMPYOq7EdpUYvIhOpzs57s3dDbJ9DW3VfC41Y/e0LKN+TlmvQd6LhqFxBExePfM/ZtoMjd3IILJwy79eofFiNqrMveux6goOLub2kCQd85IaxRrhI+ryE/R2aGVdUXx/HlkSuio9bu3bOHw+Fs3LRJlfKoISkpqaVFsHTJ4slublwuNyc3lzSHm2JiVq1csTYqykBfv6mp6dmz56TT+PKlSziOLwoO9vX1bW5ufvjoEWl7pDju7u5uaWkpkUgKC4sWLgzm8Xlq9FlVvqrgcDgBAXPnz5/H5XKfPns2N2BebW2tLP2ffvypT+8+m7dsqa+ri4qOzs/PT0i4RKPRF34bZGho+PDhw6BvF7a2fEG+p5f30qVLwsPDmUwmh8PZvHnzHxYzY7BkydLExMshISHbtm0jA3///fdx48Y9e+sVIHdyx8Ru5vKaMQw7euyYl5env5//ge9av/OqVN/UhLPZ7B497LTfe9jw3wR9ft+UFgpFEomUIAiEEI1GUfiwi1SKC4VCHCcwDNPWZpDqLhSKJBIJAFCp1La1QgASiUQskuAEDgRgGKalzUAI8fktVCqVXHQglUpbWoRaWgwqlSIUiqQSKU4QCAEFo9AZNFIj5eUVEInEErEEJwgMISrtD2kymUqm5SQSqVgkxnEcEMIwxGDQMQxTIw8AOI4LBCIcx+XrKxKJxOLWJqJSKfJV5vMFAKCjoyVrLkGLQFtHm+zQcRzn8wXa2oy/dr5HaTurah819QIV91cqlcZsinFwcJg9Z3a93FZpVe2gSh/IcIIAefmP0DdV9SIIwtXVNWrtWv+5c2U7O/m8FjqDTi6qIttfi0EnXaAIoY0bN/bs2dPd3UPeQ3vxwoUrV64eOXpEsZ3FEpFYjOMEQgjDkJZWa3nEYolIJAaCoFAoDC26rDHJcIIgEAIMw0h5sVgiFovJ+WMKlcJg0OVtEkEQAoEQl+KkL5fUE4lEKhKJ3uaLaWsz1NS3td0kUqFQhBMEqecUCkUoFOE4QcYl20FHR4t8xLhcvlKdVJovQYBI1HbLMIRk+qa0fSQSiUgkJnACEGAIo9Np5DIxoVCE47i2tpIPgqqqr9JytrQIyO+xIAQYRqHTafIrk5W2p6r7hUtxkUgsxXEgCKSs3QiC4PMF7VRdqq3NaF0GQRB8voDBoMnm2ni8FtpbFVWlb6rCAcDe3uHI4bhJrm7yGzg1KPAZmmENGtqjpaX9008/AkF84+v7QcvT/mEkEmnMpk0jRzr7+voWFin6FRSIjIyc6OLiO3tOUVHb5yZsbW0vnD8/1d2jsPBfsFPzg+qr4dOiVN/UhS9fPmXKlPDwiDt37/yFXxr4/KCYmPw7TinQoOHPIBaLExIu6zGZ6enpn7os6sAw7Lfr1xlajHv37yudIZbH0NDw4MFDRUWF8n2ch7s7i8Xau2/vv6Lj+6D6avi0KNU3NeEFhUW7du4uLCpS9bUQDSSa0bCG/woEQYjFkn/FFkaRSEyjUd9pR8ViCYWiuLmW9Hjr6P6bZuPes74aPi1K9U1NOI7jsk+vaFCDxgxr0KBBgwYNn9rVaSMAACAASURBVAyNr0CDBg0aNGj4ZGjMsAYNGjRo0PDJ0JhhDRo0aNCg4ZOhMcMaNGjQoEHDJ0NjhjVo0KBBg4ZPhsYMa9CgQYMGDZ8MjRnWoEGDBg0aPhmfoRn+xsdnxIgRf1/6q1etmjxZ8RChfykO9vaLgoM/dSn+IQwNDAIDA5VeMuphb+ez8OOStXGbZTpw+J8olyIYhi1cuFDnXWf9AsDUqVPt7Ow+IguGkUnveeE0pv5HxDUdONzGbdZHRFTFe9bX2clp9uzZf2G+ajAxMYlcvtzAwOCfye5vxdPTc3lExF+SlCp9+2g91EDyGZrhadOm2djYKARaWVllZ2WRv5HOzn8m/cGDhxgZ/ju+APqNj8+d1NRu3bqpEhgw4Mux48b9k0X6S/CY0vV8/CQb6zYrYmHOTE50J39fDbFoH8XQ0PD48eNf/e9/So92N+rV3/xrxXNV35POLl46LEV90zW3mpjwhPyZDXF6/9QQQrExMZ4eHh2MFc8Vbo+Dg8PRI0d69uypSmDChAn3791TOG0CALQ7mllPmo4xlBxL8E46Dhpu0k/JedWjjl8j69srIOz9U1NaXwaD4eTkJH/OLgAMGz580KBBH1Hgj8Dc3HzGjBnyp/D+8yRfv072VxHh4e+WVk2vnr06dXrHOdnviSp9e6cealDPZ2iGCYIgCMXzwDmc8gkukya4TJJKpVIc/7M5qD5vvD17du9++OBBVmZm8vXrsbGx5mZmH51x3759jx458ujhw9Tbqdu2bXvn27qVlZWBgYFJu4PiZeAEDu3a6v8/Fua6enp0Y6O2XrKikjfLL3GWXyKOE0rv74rISIlUOsfPX+mHi3G8vcq8LwQB7SPzKsuTAtySAtwIXEqen/OeeHh4jBgxwucbX3ZJCRmSdO3a4bg4mcD5c+cmu7mRf69etSYzMys2Jqa9oSVxdnJKTU0ViUQK4fifuOlKny8ASAnzSwpwq83Jlkql759a+/oCgJWV1Z7du42NjN8n378D8vwo9fj7+9+9cycrM/NOaurRI0f69ev3cXn98P33j9PTMzMybt28uTk2tmPHjmS4j4/vBJdJmVlZH6Q/7SH+uidclb69Uw81qOczNMNKkUolZWUlZWUl7xb9q7Fksc6fv+DmNiVyxUpzM7P9+/d/3CmBDvb2x48d4/F48+bNX7FyBZfLJc9JVUPs5i2Tp7j/npb2UQX//8u+gxl+868+elwhC8FxoqJSUFEpUCrv6Og4ZsyYFZErJZJ/6vAAXCKuLBVXln5QJPK01507d5eWlsiOCsZxYvDgwUOHDHn7Ly7rl6k0ysqVK42NjX18fNqnxmAwhg0bduPGzT9RjQ9AUsMRV5ZKhS3vFn2L0voCAI7jAB/yqvsp6GjSsbiY7eY2JTAwqJjNjjt0yMrK6iPSsbCwOHbsuKvb5NVr1vbs2XPnjh1keHkFp6ysRNDyAe35d6NK39TroYZ3Qv3UBfhbcHFx8Zk1S19f//bt2+s3bCDNVfsvj5MwGIxly5ZNmjiRIIjExMSdu3bJRg+T3dy8vb1tbGwwDCsoKJjj5yc/lsIwbNOmTX369PnGx6ehsbFDhw6RkZGDBg7U0dGpras7ePBgQkICAABBVNdUF7OLiooLV6+puJKY2LVr11evXjEYjEXBwaNGjWIymU8yMmJiYqqqqgDA0tIyMDCwX79+HU1MqFRqYVGRt7c3AISHR2RmZgYFLaRQMYKAlFu3GVp0VfJWVlaJly+T5Vy6dOmtlBRZsZlM5prVq52cnJqamurkDt9VSseOHW8kJy8LDb158yYAmJmZ/ZaU5Ofvn5GR8XG3RiljR3d2dbHtxGJiGCouaV4akSqR4HQ6xc+317Chlrq6tKfPa/YdzKqpbbEwZ/54ZCwZK3rjg7QHHFkiqu4vAEydMuV2ampe/mt5GaoOs++3K00HjRBzm4SNbe2A0em9/JZaOrkQBPEm5UruD3twsQgARv+YnBcfx076FQC6eMzpNHZqyoLWJQKsEeO7uM2gMfUrH6U++26ThK9O3zA63c5nofnQkVQdZt2LjOdxWwS1rUexjh41SiqVnD5zSiHuo/T0kJCQ+w8etE+tmdt89NgxL0/P48ePK1waMmQIjUZLS/u99X+EunkHWE+ajigUbukfjhTs7OLV1dOfrmdY+yz96YGNZHn6h8cCQOa2FQBgaNf3q60/3PR3EdRWAoBe5y4j9p/VMWU1Fb/O3hPNLStS3/6dxrlbT5ymbWrBLSnMObaz/mW2mvoejosbPHgwAFxJbFXgbxcuTEtLAwB7e/uUW7eYTGZWVtaatWsrKirIfENDQwc6Opqbm+vq6tbX1/vPnctmswHA08Nj+vTplpaWBQUF27dvz8rOJuVPxcezWCw6nZ6TkxO7eXNubi4AIITmz58/c8YMCoVSWNh2YB+GYSEhIS4TJhgbG3O53OvJyTExMQBAAMHjcYvZRQQB2U+fjnR2Hj5s+M+//KwmX1XlrKmtKSlhFxcXGxgYREetleWrqj2neXsHBAQYGBikp6evW7+e7DcAoJ+Dw4IFC+zs7PT09MrLyyOWL3/58qV8RC8vr/CwsLkBAQqnO8tzKSHh3r17m7dsIf+9euXKxYSEw4cPk/+q0jdV4WtWrx41atTcgICCgn/BsZufis/TDBM4vn7DRgxhkZERsbGxISEhaoSjoqK+HDBg5arVGIZWrljBZDJXr1kDAL6+vkuXLImPj9+5a7dELLawsJC3wQihlStW9OvXb+bMWfUNDQihpUuXsixZi0IWN9Q3dOpkJX/MNQJEPlS4nL80KiqqT+/emzbF1NXXh4eFbtm82c/fHwA6d+rs5uq6Zs3a/Px8KY4bGBgCQMeOHfv27RMU9C2d0Tq1SZ4Dr0qedMIDQOLlBAUnbWxsrK2NTUREJE7gwQu/Vd+SVVVVr1+/dvzSkTTDDg4O/JaWrKzsd9yAD8Fzard5/n0uJuQdPpYpEeNmZkyJBAeAZSED7LoZ7jnwuKFREDS//8qIgcuW3yGdzwBw4tjE959ccHJyil63XqFf6x+6UZdl+2jrSoLAe/kEycLtg9ca9x6QvmMtwlC/wOVUXWb27igAIAhC5m6VSnFczm9JEETGgRiEMIcFYf2WbXq8cYmawtgHrzXo2ivzu83Cpnr7ucv6h8bcXxlAXhrh5HT9enL7g4bOnD4TFhY6cuTIW7duKVxCCCUl/Ra6bFnXrl3z8/PlL410Hnn//n1+SwuZoO0Uny6efk+P7uSWFdtM8DDqYU+KWY2Z0st/2dOju5pLC3vOXDBk0+E7wV64RIzL+ULfDk9bq0xlaD3/JY5XybHznDMk5nDKPFepULkfgky/p9/Sp0d31r9+bjPBY+DavSnzXcXcJlX1jVyx0s7O7tDB7/znBpSXVwBAbW01eammpmZz7BYAIiIiYsOGDfPmzQMAGo3mM2vWiZM/Jydf5/NazC3My8rKAMDd3T00NHTrtu3Pnz338vI8cOCAy8SJjY2NOI7v3bu/sqqSRqWFhATv2L59kqsrjuO+vr7+fn7bt+8oKi7y8vJycHAgM3Vzc/P08FixYhWbzTY2NtbR/cNSMlKpKBRMJBKRA3hV+aoqJ7ztHywszCa7ub7Te+Hu7h4WFrZt+46iwsKgoMBjR4+6e3iIxWIHe/ujR48+fPho7drouro6W1ubkpI/OP8muriEhYYFBS3MyspWc/Lgnbt3hwweTP5tYmJiaWmZJudOU6VvqsIHDx5sZGTUq1cvjRlWw+dphq9cvZaSkgIATU1NP/xwnMViyTReATMzM5cJE+bPX3Dv/n0Ags8XxB36bv+BA3V1dYELFhw7/v2OHTtIg/fkyRMqrbW5KBglOjp6QP/+M2fMrKurQxgCgA7GHSoqKl68eC4WiwuLCjEMyff7GIaZmpouWbyksrKysLDQwsLCZcKEyVOmFhQUIARr1q69kphoYWHB4XDIzi7xypVWq08QFCrF0sICAIrZ7PZVUCpPOuHbC7NYrOHDhs2ePefxkycAYG1t7e3lqaYlEUK3UlJcJrhs2boFAPo5ODxOT8dxlZN/QwYPjpObyCSRjWbaQ6Nh38zsGX8mN+7oU7Kdn72oo9KopqY6I0dY+S24yi7hIQRbdz46cWyiqalOZSVfledZFYaGhkwmk80ulg/UMbP8wnFYarh/Q04GAJRadraZ4AkA2iamlsPH/746qDbrAQDxWCD4ev3+1ye/a6mpVJNF6e1r1Q9vA8BjbtPwLUd1zCz5FW+USmp/YWE5fHxykAe/tBAheLI7euyRBO0vLFqqOADAYrEePXzUPpYUlx45cjRg7tz2ZhgAKioq+C0tlpaW8t0fhmFOTiN27twlM3LWE6e/OnOcnXgKw5CEz2UNa3UqdPGYk3f+RPHlnzGE3c/PcTl5w/yr0W9Sr6mpb93r5yW/nccQup+bPenUbYuvx5bevKRKuKvX3Off7ym5dhbDsOx9Gy2GjjQdNKLs1mVV9a2tqakw0AeAiorysrJSAJAdlsd5w7l//x4A7N6z58D+fTo6Onw+n4x1505qRkYGAMp9mUsqUsDcubt27T5z5gyGYevWrx81auSIESMuXboEALdTbyOEAIht27afP3/OxMSkqqpq5owZx44d/yU+HsMQt5k7/u3SRXIQnP00u6Ghvqi4kCDa3oBJDA0M3D08vvjiiwcPH6rPV2k5ASAycvny5RFUKrWqqmrV6jVqWh4A/P38fvzxp59/Pokh7EVOzu2UW2PHjLly9WpgYOCLnJx58xdgGEIIsp9mU6kU2d13d3cPCw0NDAx8/OSx+kmx27dTv/HxMTU1raysdHBw4PP5L17kyAso1TdV4atWrXZ0dLx29ar6Sv3H+TzNMIYhUsVzX+YAQOfO1qrMcJcuXRBCz549I+WfZmchhGxtbfX09HR1dVNu3WIw3i46kFNdf38/Op0+bvyEuvpWGwwAO3bujIs7dO3q1YSEhNNnztTU1MjkQ0IWhYQsAoC8vLxvFy4Si8U97OwQQr+ePSNfGHMzcw6n1ctKo1H/aO0QAMgeKjqdnnw9OTwi/NGjRyrklTu1rK2tAUDWBchPyKni+vXkwAULunTpUlBQMGDAl7IORSmZWVmuroq7uaqqVdowliVTR5t67z5HoZ272hggBEcOjJcX/sJEp7KSr8ZZpxQjIyMAaGxslA/UtbQBAF7Ry7ft0Joms1MXQKjpdas+NL3KBoR0rWzVm2EMw0h5bmEuAOhYWKsyw/o23QGhUftOyQdqm5iRZtjYyKihsUFpxPMXLgQFBX355ZfKckd1tXUKq/cdHR319fVvp6aS/1K0tLU7mjXm59BoVJBzpVAYWrpmrPrcbHIBOSHgNZcU6XZ6x+GnCBCZDiEVNZUU6lh0ViVJY+rrmFrYzw+3nxfaWloqjWFiSv6ttL4IQ6SeI9TuCFsEFCoFAMrLywHA2LiDzAxTKBR566Kvr29pabl8eUR4eOuybRqNZmZqBgB0Oj10WfDo0aOZTGZDQwMA6OjoaGtrm5mZPX/x/G37tHWMp0+fcXZy+i3pWlJS0qnTp1+9eiW7NHTo0OysLACoq6tbsXJVXl6eoaGhqnyVlpPk0KG4hEuXTEw6zp79zan4Xzy9vBTUVYaWlhaLxcrKyiTvF4/HLSws7NKlCwD07t372PHjdPrboYJcJv0cHIZ9/fXiJUveaYMB4PHj9IaGBicnp9OnT/fv3//hw0cK0/RK9U1VeEZmRvrjx/+KQ74/IZ+nGZZBPk40qspqEjgOctYIo7S6jkkvnKpzyNPS0gYM+HLb1q3Bi4IFgtbB2etXr5ydR02Z7Obl7TV79uzIyEjZjOyJkz/Hx8dXVVU3NjYwGAwKBWsRCABg2rTpsn6EAKivr1NVTk55OQBYW1u/eVNGFszQ0OAjlnrhUikA0Gh0oVD4nlHy8l7nFxSMGzcuPj7ezq47ORxRhVAoKm03ClezwJV07SKkaFkFQgkALAj+raWldSKAAGhqbnvPeP/Vn3W1tQBgaGhYWdlmSsl2oNDoEvEf2oFcQoxRMDIn0gyQSkJIxBj9HTtYKFQqAGAUlfomEQoB4NbiWeIWflumza33va6uztDQUGlEHJeeOHFy5owZSq8aGRnW1NbKhzg7O2dlZTU01JM6TOAEEARFxYOA3lo7hBBgiFwnjEsk1Hft5UUIYRQqUrYHjEQqEgJBZB6Iqcp6KAskWrjkHyrr+667Sy61U6P/QqGQIIj1GzY+fDuhTgCQa0TCwsJGOjuvW7ehqLiwV69e27ZuJQgCxwmCIJRuZuNym729pw8fPtzL2/NUfPwPP/ywZ+9e8lJWdvbq1Wvq6xuqq6tpVAqVRlWTrxrqG+rLyzkczpulSzMfPrg/evToc+fOqZFHWGvFEUIIIfIhUtNkxcVsiUS8csWKoqIitjKPmgJXrl4dP27c6dOnhw4Zcvr0mfYC7fVNVbjS1w4NCnzmK6UHDxqE43hObq4sRCAQ6Oq07Ud8nZdHEIRskDFw4ECCIPLz89lsNo/HGz16tNJkX+TkeE+bbmZmunvXLtmLM0bBEIJz5897enidPn0mLKxtt19dXW1paYlIJNDR0SZnZQoKCnAc727XnVPOIX/l5RyhUHFjiYzKyor8/Pzp06apejNQBZfLZTL1ZP/m5ecTBDF0qJJ9nyRTp051d3eXD8Ew7OyZs26ursOGDSt78yZf7RzPkMGDsjIzFX5fffWVKvmyN818vnjYV5YK4cUlTThOdO3SoapGRP6qa0QiUVtXw+eLdXWVdJoCgURH+w/GpqGxkcvlkiMGGc3sfCAIk36DFaI3F+cBQXToPYD816SvIxBEc0kBAAjqa5kW79h/2cF+IEHgDQVt+iYVCKjabfrWXJJPELixbTdJDUf2I94uCSwpKe36x3LKc+bsmaFDh3Zot/3M1NRUV1eXfD8jQQiNdHZOvnFDpi24SMAtL+3Yf6hCXKlQwOWUdujTWl+GobG+lU1TcR4ACBtqmJYqh7kkWsYd9ays61+/kE9Qvr64SMjllHaw6y1fX5zfrL6+PD4fAPT09Npf+iMqTY9QKCwpKenbt4/889Xc3AQAffv0uXrtWsrtlJKSkufPn7+VF5SWlg4dqtg+AIAQYmjR0+6lBQcvWhSy2N/f38KidWN6C5/PZhc3NzdqazPIGSs1+aqBnBumUCja2lpUKrVFbnV0S4tAfv+0QCAoKSlxfNtfdejQwdbW9nXeawB4/vz5qJEjlfqKGhoaZs/xy819eTguztTUVP6So6PjggULFHZInzt3vn///oMGDerSpUvK7dsKqbXXNzXhVlZW48aN+1AP1n+Nz3M03L1b94EDB9ra2AQFBf167lxlZYWsPyooKPT09GhsarRisS5cvFhdXX0xIWHNmjV79+1DAIsXLz5//kJ1dTVCaMfOnatXrdLT10tLSxMKhdbW1ufOnSPHvgih2toa39lzzp45szwiYlNMDAAEBweXsNklJSU0Ot3Orrv82Eu2REtGZWXlmbO/rl2zppOVVU5urq6uLkIoKSlJVY0QQlu2bos7dHD7tm1nz57V0tZ+z6Z4+fKlt7dXY2ODlZXVhQsXqqqqLl5MWLN6tbGRUTGb3b1bd3lhMzOz6KgoAHjw4IHMPQ4Aly5fWrJkcfDChZcvJ6p/oj7UKS2VQtyxrMXBjkwmPf1JpUgkZVnqXf2tqKZGcPlqwZJFAywsmHn59TraNIQg5U7bE55XUO/qYtvcLLIwZ167XiwUtg6U2SVNEyfYNHPF5ua6v11nC0VShNDNmzfHjx9/VW6CSlhXVZx8qe+3KxmGRrw3bH3rbm/Dq4tvXO67cPWrn/YDgh6+i4quXxTWVSOEyu+ndPf255bky8uT6Ft369DXkWll031GYFHSBWFtpUzfmkoLO493l3AbdcxYZTcShLVVRVfP2S9cpWtu1ViQS9PWBYQ4d38jhW+l3IoID4/dvFnp5mYej3v5cuL06dMUwsePH89mswsKCmS3pnfv3mZmZgoTybm/xDku24AL+LXP0pmd2+77y1OHByyOknAbeW/Ytu6zeZWc8rRkDKDiwe1uHnN6+C6qzryv36WXfFJaxh1NHAbR9Qy7ePrxyss4d5Mob+vbXFrUebRbzRMnqrZOU9GrZnbBixP7By/fgiFU9SQNAHRMLYsu/ay+vtXV1bW1tYGBC06fPm1kZJSXl/f69ev2DaKevfv2bd+2DSH0+927AMBisU6cPAkAubkvx44Zk5mRUVlV1bmztUz+u4OHNm3c0MLnP0pP7969rX3cXF0NDAxyX74UiURf/e9/IpGoob7Nkd7+cVCVrxpMTEw6d+5sYmIy29dXLBY/kFsSX1hUOHXKlLt3nXR0dV+9epWfn38oLm79unWNTY3FxcV+c+a8ecO5fv06AGzfvuPcr2cPHTx48eLF+vr6L0xNX7x40TpNiwAhCAlZfOzYkT27d8+eM0fmDFsXHc1isco5nEtvN1YAQF7e6+ynTzdu2PD8+YuqqkqFV//2+qYmfPu27T162K2kUK5opodV8xma4UeP0ocN+3rcuLHNzdyzv57bt2+f/AxobOzmjRvX79m9u7Co6MbNm0KhMDoqOjw8PHL5cgLgwvkL27fvIKd7T506XVdXP9fff8L48QihwsLC5ORkmQsaw1BNTU1YWPj33x+7d+9eyu3bDDo9ODjY2NiYx+NlZ2evjYpWU0iE0IYNG8o5nBkzpi8wMamtrb1w8aL6et2/d29BYNCSxSH79u3j8XiPHz+Rt5SqiN28ZeuWzbt37SosKiLLHxUVXV1THRgYpKfHrKurS71zRyZcW1ubk5uLANVU18gnwuPxzp077+MzKzExUX12AoGwmF2kEEi6zlRFSUgsqm8QzvTu5TzCCgGwS5vupr0RCqW79j2prOJNce1mPL1HfYMwKfkPye4/mLEqcui61UPZpU130t7IzPC+gxkRoYPXrxnKLm36PY0jFEkB4Ndz53/68YcBAwbI9lkhhLL2rhfU13SbvoCmyxQ21Fek3yHDs/eukwSE9p4fQRBEcXLCi6M7aRQEAPnnf2QYm/Scs4TC0BI21pU/uksmVf003czxa8thY8Q8buG1cy9PHCDlSZ4e2jpg6TrHVTu5pUUV929KRcLsAxv5VeVdJnkzjOYJG2pLbyTIhG/cuBm5fPmc2bOPHD3avqEQQr/ExyuYYSaTOWvmzBMnT8r3fc7Ozq9eveZwyuU1n3MrMR0nevt+azPZR8LnVmenSwUtAFB28zKi0nv5BDL0DKqyH6VFLSITqs/NerJ3Q2+fQFt3XwmPW/3sCSnfkJdr0neg46pdQBAVj3/P2LeBIndzCy6cMOzWq39YjKixLnvveoCCiru/pQkEfeeEsEa5Svi8hvwcmRlWVV8cx5dHroiOWrt3zx4Oh7Nx0yZVyqOGpKSklhbB0iWLJ7u5cbncnNxc0hxuiolZtXLF2qgoA339pqamZ8+ek07jy5cu4Ti+KDjY19e3ubn54aNH5KhUiuPu7u6WlpYSiaSwsGjhwmAen6dGn1XlqwoOhxMQMHf+/HlcLvfps2dzA+bV1tbK0v/px5/69O6zecuW+rq6qOjo/Pz8hIRLNBp94bdBhoaGDx8+DPq29SOsBQX5nl7eS5cuCQ8PZzKZHA5n8+bNf1jMjMGSJUsTEy+HhIRs27aNDPz999/HjRv37K1XgATDsOPHju/du+fw4SMKNVWqb2rC2Wx2jx522u89bPhvgux6vGM5xr8OoVAkkUgJgkAI0WgUhQ+7SKW4UCjEcQLDMG1tBqlkQqFIIpEAAJVKbVsrBCCRSMQiCU7gQACGYVraDIQQn99CpVLJRQdSqbSlRailxaBSKUKhSCqR4gSBEFAwCp1BIzVSXl4BkUgsEUtwgsAQotL+kCaTqWRaTiKRikViHMcBIQxDDAYdwzA18gCA47hAIMJxXL6+IpFILG5tIiqVIl9lPl8AADo6ip859PT0cnN19fnG5+/wLyltZ1DRPmrqBSrur1QqjdkU4+DgMHvO7Hq5rdKq2kGVPpDhBAHy8h+hb6rqRRCEq6tr1Nq1/nPnynZ28nktdAadXFSF4zifL9Bi0EkXKEJo48aNPXv2dHf3kPfQXrxw4cqVq0eOHlFsZ7FEJBbjOIEQwjCkpdVaHrFYIhKJgSAoFApDiy5rTDKcIAiEAMMwUl4slojFYnL+mEKlMBh0+Z6aIAiBQIhLcdKXS84LSiRSkUj0Nl9MW5uhpr6t7SaRCoUinCBIPadQKEKhCMcJMi7ZDjo6WqQ2crl8bW1G+zlIpfkSBIhEbbcMQ0imb0rbRyKRiERiAicAAYYwOp1GLhMTCkU4jmtrK/kgqKr6Ki1nS4uA/B4LQoBhFDqdJr+bSGl7qrpfuBQXicRSHAeCQMrajSAIPl/QTtWl2toMhefaxsYm/pdfRo0ew+NxZYGq9E1VOADY2zscORw3ydVNfgOnBgU+QzOs4S/E0MDA0tLSqlOnVStXLl267PGTx5+6RB+Jlpb2Tz/9CATxja/v+y9P++eRSKQxmzaNHOns6+tbWKToV1AgMjJyoouL7+w5RUVtn5uwtbW9cP78VHePwsJ/wU7ND6qvhn+Afv36aTEYoaGhN2/eOnjooPw7llJ9Uxe+fPmUKVPCwyPu3L3zoYta/lNQTEz+HacUaPgkOA4cePC77+zt7bdv35FyO+Xfu9RCLBYnJFzWYzLT09M/dVnUgWHYb9evM7QY9+7fVzpDLI+hoeHBg4eKigrl+zgPd3cWi7V3395/Rcf3QfXV8HdjaGBw8uTJ0aNH37hxc/eePQrPu1J9UxNeUFi0a+fuwqIiNV8L0QCa0bAG9UglUoFAiBCi02myr5f8SyEIQiyW/Cu2MIpEYhqN+k47KhZLKBTFzbWkx1tH9980G/ee9dXwd0MQBJ/fAu2mY0iU6puacBzHZZ9e0aAGjRnWoEGDBg0aPhkacXI3KwAAAFNJREFUX4EGDRo0aNDwydCYYQ0aNGjQoOGToTHDGjRo0KBBwydDY4Y1aNCgQYOGT4bGDGvQoEGDBg2fDI0Z1qBBgwYNGj4ZGjOsQYMGDRo0fDL+D3lUxZ3SMIaDAAAAAElFTkSuQmCC;" vertex="1" parent="1">
          <mxGeometry y="650" width="836.32" height="62.52" as="geometry" />
        </mxCell>
        <mxCell id="9a3LxTXBDebZ_LJj2hiY-50" value="AtenÃ§Ã£o : Use sempre ceil, arredonde sempre para cima, Ã© preferivel alocar um bloco que fique ocioso, do que faltar blocos na alocaÃ§Ã£o.&amp;nbsp;" style="text;html=1;align=center;verticalAlign=middle;whiteSpace=wrap;rounded=0;" vertex="1" parent="1">
          <mxGeometry y="730" width="732.5" height="30" as="geometry" />
        </mxCell>
        <mxCell id="9a3LxTXBDebZ_LJj2hiY-52" value="&lt;h1 style=&quot;margin-top: 0px;&quot;&gt;&lt;span style=&quot;background-color: initial;&quot;&gt;AtenÃ§Ã£o:&amp;nbsp;&lt;br&gt;&lt;/span&gt;&lt;span style=&quot;background-color: initial; font-size: 12px; font-weight: normal;&quot;&gt;A manipulaÃ§Ã£o de arrays dentro dos kerneis pode ser complexa, Ã© preciso levar em conta quando lidamos com matrizes, que Ã© mais facil trabalhar com elas de forma linearizada.&lt;/span&gt;&lt;br&gt;&lt;/h1&gt;" style="text;html=1;whiteSpace=wrap;overflow=hidden;rounded=0;" vertex="1" parent="1">
          <mxGeometry x="50" y="-210" width="480" height="120" as="geometry" />
        </mxCell>
      </root>
    </mxGraphModel>
  </diagram>
</mxfile>
